<?xml version="1.0" encoding="UTF-8"?>
<svg version="1.1" xmlns="http://www.w3.org/2000/svg" width="698" height="808">
<path d="M0 0 C2.01794049 1.0248657 3.93740954 2.15140064 5.87109375 3.32739258 C7.44515069 4.24007821 9.02078304 5.15005014 10.59765625 6.05786133 C11.46036133 6.55850098 12.32306641 7.05914062 13.21191406 7.57495117 C88.89304704 50.8417121 173.18068393 78.43300025 319.2644043 98.91015625 C320.09539139 98.98358749 320.92637848 99.05701874 321.782547 99.13267517 C323.32993469 99.26867575 324.87793616 99.39793539 326.42655945 99.51905823 C333.21806224 100.120639 333.21806224 100.120639 336.05859375 102.20239258 C338.09419931 105.20928567 338.40010587 107.96639023 338.65625 111.54223633 C338.73552734 112.60764648 338.81480469 113.67305664 338.89648438 114.77075195 C338.97060547 115.88256836 339.04472656 116.99438477 339.12109375 118.13989258 C339.23807617 119.70900391 339.23807617 119.70900391 339.35742188 121.30981445 C339.61775281 124.93938708 339.84169899 128.56996436 340.05859375 132.20239258 C340.10276428 132.89458893 340.14693481 133.58678528 340.19244385 134.29995728 C341.33306529 152.52041452 341.30411698 170.76635906 341.30859375 189.01489258 C341.30903561 189.84174561 341.30947746 190.66859863 341.30993271 191.52050781 C341.33300123 274.07040273 332.27303503 357.29898451 275.05859375 517.20239258 C274.58454102 518.18900879 274.11048828 519.175625 273.62207031 520.19213867 C257.06943722 554.40865377 237.26987806 587.07356213 214.05859375 617.20239258 C213.23907082 618.27882549 212.42007963 619.3556634 211.6015625 620.43286133 C199.34617155 636.52057234 186.28675867 651.87995228 172.48925781 666.65844727 C170.25773838 669.06666039 168.06995836 671.51437653 165.87109375 673.95239258 C161.15888917 679.09609263 156.29477949 684.07358219 151.37109375 689.01489258 C150.67024658 689.72033203 149.96939941 690.42577148 149.24731445 691.15258789 C145.28114349 695.10709502 141.21314719 698.87694935 136.97192383 702.53417969 C133.98824401 705.13561955 131.12509321 707.86141027 128.24609375 710.57739258 C123.17723863 715.32480478 117.9817537 719.82397887 112.55859375 724.16723633 C110.21800329 726.07262325 107.97791265 728.04660148 105.74609375 730.07739258 C99.77208978 735.43813596 93.40822843 740.30061415 87.05859375 745.20239258 C86.39794922 745.71463379 85.73730469 746.226875 85.05664062 746.75463867 C70.42971725 758.08805948 55.58191499 769.12003443 40.05859375 779.20239258 C38.73036284 780.07332483 37.40224564 780.94443051 36.07421875 781.81567383 C27.42851233 787.46833218 18.69437233 792.92939941 9.79003906 798.16479492 C8.08769472 799.18495333 6.41254396 800.25005485 4.73828125 801.31567383 C3.70960938 801.95891602 2.6809375 802.6021582 1.62109375 803.26489258 C0.73550781 803.83336914 -0.15007812 804.4018457 -1.0625 804.98754883 C-4.87728068 806.59731381 -7.92595579 807.06354766 -11.94140625 806.20239258 C-15.96654395 804.43695493 -19.64425365 802.19791086 -23.37890625 799.88989258 C-24.44004639 799.25124268 -25.50118652 798.61259277 -26.59448242 797.95458984 C-29.72459162 796.05958307 -32.83631091 794.13806314 -35.94140625 792.20239258 C-36.75448242 791.69643555 -37.56755859 791.19047852 -38.40527344 790.66918945 C-43.30728313 787.59706174 -48.13951402 784.42840418 -52.94140625 781.20239258 C-53.70791504 780.68821777 -54.47442383 780.17404297 -55.26416016 779.64428711 C-65.37104321 772.84303106 -75.32922792 765.8656005 -85.09228516 758.5793457 C-86.9987578 757.15968559 -88.91296433 755.75092978 -90.828125 754.34301758 C-108.54999215 741.25693818 -125.42701037 727.00029724 -141.734375 712.19458008 C-143.67766626 710.44045876 -145.64500073 708.72266564 -147.62890625 707.01489258 C-157.3976803 698.47698406 -166.75286033 689.48265763 -175.94140625 680.32739258 C-176.63484131 679.6385498 -177.32827637 678.94970703 -178.04272461 678.23999023 C-181.97482626 674.29602919 -185.72269257 670.24536349 -189.36035156 666.02856445 C-191.46157058 663.6015851 -193.63820218 661.24778015 -195.81640625 658.88989258 C-199.9089806 654.40225826 -203.79411459 649.7930903 -207.60546875 645.06567383 C-209.65883077 642.54876018 -211.75624263 640.07757301 -213.87670898 637.6171875 C-220.05546375 630.42853876 -225.78529068 622.95625309 -231.39111328 615.31469727 C-232.42261631 613.90925409 -233.45743981 612.50624175 -234.49560547 611.10571289 C-254.55210482 584.04287643 -271.82913912 555.29143754 -286.94140625 525.20239258 C-287.62299805 523.85322754 -287.62299805 523.85322754 -288.31835938 522.47680664 C-314.56763065 470.18599214 -331.8463481 413.51807311 -342.94140625 356.20239258 C-343.08000061 355.4913739 -343.21859497 354.78035522 -343.36138916 354.04779053 C-348.29973766 328.61140528 -351.49596572 302.99021242 -353.94140625 277.20239258 C-354.02604126 276.32395691 -354.11067627 275.44552124 -354.19787598 274.54046631 C-356.7963319 247.25923285 -357.22333337 219.98809809 -357.25103378 192.60434341 C-357.25384738 190.06795825 -357.25936487 187.53158887 -357.26504517 184.99520874 C-357.38455845 111.53372502 -357.38455845 111.53372502 -352.00390625 103.20239258 C-348.29268927 99.60363671 -344.53339417 99.82201325 -339.59765625 99.44067383 C-337.81699328 99.29390603 -336.03639715 99.14632579 -334.25585938 98.99804688 C-333.30976807 98.92000824 -332.36367676 98.8419696 -331.38891602 98.76156616 C-248.99174932 91.86584536 -168.95295029 72.58446795 -47.75390625 18.01489258 C-47.11124817 17.68277771 -46.46859009 17.35066284 -45.80645752 17.00848389 C-39.27708459 13.62362682 -32.80667849 10.15815133 -26.4296875 6.49145508 C-25.43155029 5.92322021 -24.43341309 5.35498535 -23.4050293 4.76953125 C-21.58282582 3.72341375 -19.77181233 2.65741509 -17.97583008 1.56689453 C-11.63292473 -2.08226516 -6.86962441 -2.82231677 0 0 Z M-16.06640625 43.55004883 C-16.75685532 43.91284943 -17.44730438 44.27565002 -18.15867615 44.64944458 C-19.64733219 45.43314859 -21.13274685 46.22303427 -22.61520386 47.0184021 C-25.77136572 48.70962455 -28.94528357 50.36609048 -32.1190033 52.02406311 C-33.73728905 52.86947434 -35.35484973 53.71627489 -36.97169495 54.56443787 C-111.6256398 93.69962501 -193.49976419 119.48189461 -317.94140625 136.20239258 C-318.82983418 146.50915018 -319.10438583 156.73962054 -319.109375 167.07739258 C-319.11260717 168.6927086 -319.1159725 170.30802436 -319.11946106 171.92333984 C-319.12541291 175.30526399 -319.12730577 178.68716279 -319.12670898 182.0690918 C-319.12662885 185.44837937 -319.13339417 188.8275281 -319.1472168 192.20678711 C-319.27129534 223.05940994 -318.5543115 253.94439162 -315.19140625 284.63989258 C-315.10870483 285.41815399 -315.02600342 286.19641541 -314.9407959 286.9982605 C-306.52830491 365.70128665 -286.54812249 443.13071295 -235.94140625 540.20239258 C-235.42255859 541.07766602 -234.90371094 541.95293945 -234.36914062 542.85473633 C-219.05596894 568.5228921 -201.32446054 592.39003651 -182.36816406 615.45532227 C-181.11647254 616.98802324 -179.88288837 618.53547482 -178.65234375 620.08520508 C-173.00818153 627.16683184 -166.86575551 633.71747564 -160.640625 640.28442383 C-157.50620019 643.59169412 -154.43429341 646.94706025 -151.37890625 650.32739258 C-143.42151276 659.03301859 -135.19743058 667.62031407 -126.18359375 675.24145508 C-123.59585081 677.50460308 -121.10274724 679.85556064 -118.6027832 682.21484375 C-112.78415408 687.70529787 -106.91590355 693.01558812 -100.66015625 698.01098633 C-98.20519833 699.98976707 -95.80501666 702.02083391 -93.41577148 704.078125 C-73.23331386 721.42006577 -51.260926 736.76130298 -28.94140625 751.20239258 C-27.5644458 752.10127197 -27.5644458 752.10127197 -26.15966797 753.01831055 C-23.45589022 754.77104881 -20.73421204 756.49134372 -18.00390625 758.20239258 C-17.18164551 758.73743408 -16.35938477 759.27247559 -15.51220703 759.82373047 C-11.09243683 762.60712107 -11.09243683 762.60712107 -6.0390625 762.90551758 C-1.39713634 760.35333623 3.17253602 757.73073608 7.68359375 754.95239258 C8.69905273 754.32977539 9.71451172 753.7071582 10.76074219 753.06567383 C20.81332687 746.83802087 30.48785884 740.14189248 40.05859375 733.20239258 C40.89471191 732.59830566 41.73083008 731.99421875 42.59228516 731.37182617 C51.97892789 724.57509828 61.18095922 717.65452459 70.05859375 710.20239258 C71.82822348 708.76341115 73.59909476 707.32595543 75.37109375 705.88989258 C85.42950125 697.64858003 95.22965521 689.16285787 104.73046875 680.28442383 C106.54297868 678.59110196 108.37201268 676.92438981 110.2277832 675.27832031 C116.74837991 669.49454382 122.96094804 663.45439519 129.10961914 657.28173828 C130.75099171 655.63497854 132.39768194 653.99367162 134.04492188 652.3527832 C139.59424431 646.80695977 144.96308292 641.17166821 150.05859375 635.20239258 C151.67827192 633.42669037 153.30271093 631.6553095 154.93359375 629.88989258 C159.85436677 624.48741738 164.48559865 618.90001677 169.05859375 613.20239258 C169.98248824 612.07040471 170.90699665 610.93891771 171.83203125 609.80786133 C191.22873443 585.9863861 209.16362382 560.08526587 224.05859375 533.20239258 C224.76943115 531.94241455 224.76943115 531.94241455 225.49462891 530.65698242 C250.71347422 485.89135043 268.65804139 438.02542434 281.05859375 388.20239258 C281.32623535 387.13698242 281.59387695 386.07157227 281.86962891 384.97387695 C291.48250358 346.32756384 297.49309648 306.80357557 300.80859375 267.13989258 C300.86785034 266.43241882 300.92710693 265.72494507 300.98815918 264.99603271 C301.39313184 260.06770906 301.7386511 255.13690327 302.05859375 250.20239258 C302.10731628 249.4915451 302.15603882 248.78069763 302.20623779 248.04830933 C303.3673636 230.58676357 303.21214043 213.08986947 303.18896484 195.59912109 C303.18324616 191.24842589 303.18657474 186.89779213 303.19253731 182.54709911 C303.19618596 179.13830621 303.19498516 175.7295274 303.19240952 172.32073402 C303.19175327 170.71791895 303.19252175 169.1151025 303.19488907 167.51228905 C303.20698635 157.03612229 302.8355339 146.6503271 302.05859375 136.20239258 C300.899646 136.05729248 299.74069824 135.91219238 298.54663086 135.76269531 C219.33230078 125.78437293 142.61386076 108.44836399 2.84326172 44.84448242 C2.01713379 44.37864746 1.19100586 43.9128125 0.33984375 43.43286133 C-0.37107422 43.02447021 -1.08199219 42.6160791 -1.81445312 42.1953125 C-7.55815283 39.5139963 -10.67228064 40.59805314 -16.06640625 43.55004883 Z " fill="#468EAD" transform="translate(356.94140625,1.797607421875)"/>
<path d="M0 0 C5.95620089 0.06146354 11.27160558 1.135856 16.9921875 2.71875 C18.4776709 3.12033325 18.4776709 3.12033325 19.99316406 3.5300293 C64.36196495 15.91390794 106.71203938 41.54679059 135.1171875 78.21875 C135.90996094 79.23324219 136.70273437 80.24773437 137.51953125 81.29296875 C160.99993595 112.21474078 172.0175661 151.31516658 167.34643555 189.89892578 C165.50400812 203.26446064 163.0570193 217.72116175 157.87109375 230.22265625 C155.75019158 238.65131927 158.78563487 248.13502298 160.6796875 256.40625 C160.91365234 257.45361328 161.14761719 258.50097656 161.38867188 259.58007812 C161.95869983 262.1277541 162.53493586 264.67384518 163.1171875 267.21875 C163.31763672 266.4251709 163.51808594 265.6315918 163.72460938 264.81396484 C168.01920191 247.93991674 172.58341179 231.39225884 179.1171875 215.21875 C179.59623535 214.02934814 179.59623535 214.02934814 180.08496094 212.81591797 C188.24384631 192.87427682 199.42456636 174.09379261 214.17578125 158.31640625 C216.26399616 156.12113584 216.26399616 156.12113584 218.4921875 153.15625 C222.56322928 148.60056039 227.30508933 144.96362321 232.1171875 141.21875 C232.97441406 140.54585937 233.83164062 139.87296875 234.71484375 139.1796875 C271.43083314 111.37964727 318.39514842 102.79106746 363.4050293 108.80371094 C396.28877121 113.66647247 396.28877121 113.66647247 409.1171875 122.21875 C408.69929617 127.61856147 406.55333664 130.88718985 403.3046875 135.03125 C402.29391204 136.36202138 401.28485905 137.69410243 400.27734375 139.02734375 C399.49254639 140.05964111 399.49254639 140.05964111 398.69189453 141.11279297 C396.12385112 144.54720265 393.69097851 148.07389217 391.2421875 151.59375 C379.19835555 168.75557396 366.1727667 184.83584334 351.8671875 200.15625 C351.2177417 200.85427734 350.5682959 201.55230469 349.89916992 202.27148438 C345.53972392 206.8905596 340.94993494 211.10212786 336.1171875 215.21875 C335.09508142 216.11834766 334.07414633 217.01927849 333.0546875 217.921875 C300.67523285 245.99555111 258.09138084 266.04913518 214.44921875 263.859375 C212.08157932 263.76294746 209.71381516 263.67071422 207.34594727 263.58007812 C205.72862107 263.50556052 204.11214512 263.40966835 202.49731445 263.29296875 C197.12582579 262.91971512 192.34810475 262.81717247 187.1171875 264.21875 C183.14935947 268.09740156 181.26143199 272.08582424 179.1171875 277.21875 C178.45245428 278.46111446 177.77867668 279.69881258 177.0859375 280.92578125 C172.87391749 289.83151505 169.7280353 298.95803192 166.78125 308.35864258 C166.46285156 309.3617749 166.14445313 310.36490723 165.81640625 311.3984375 C165.53627686 312.30319824 165.25614746 313.20795898 164.9675293 314.14013672 C164.1171875 316.21875 164.1171875 316.21875 162.1171875 317.21875 C156.06825339 317.82364341 152.17017269 316.28751417 147.1171875 313.21875 C145.14462139 311.24618389 145.79359213 307.43703237 145.6875 304.73046875 C145.61612994 303.15036477 145.54416659 301.57028751 145.47167969 299.99023438 C145.43473999 299.15967529 145.39780029 298.32911621 145.35974121 297.47338867 C144.53885566 277.38867775 144.53885566 277.38867775 141.57128906 257.54052734 C141.24549949 255.87479678 140.97219809 254.19847466 140.73339844 252.51806641 C139.33093403 241.36860349 139.33093403 241.36860349 133.04296875 232.55761719 C127.90040983 229.63646154 122.38636055 227.85050513 116.76025391 226.09423828 C112.97077764 224.83901365 109.47303104 223.16850642 105.9296875 221.34375 C104.98089722 220.86240601 104.98089722 220.86240601 104.01293945 220.37133789 C86.49096302 211.31176791 70.81530834 200.21117691 56.55810547 186.59228516 C55.15220695 185.25213181 53.73056559 183.9285552 52.30859375 182.60546875 C10.90390222 142.96267899 0.42284219 82.15576402 -4.6328125 27.65625 C-4.69802094 26.96110291 -4.76322937 26.26595581 -4.83041382 25.54974365 C-6.40751251 8.48584511 -6.40751251 8.48584511 -5.8828125 1.21875 C-4.22155439 -0.44250811 -2.28223855 0.02744336 0 0 Z M43.1171875 49.21875 C44.45718248 52.225568 45.91564041 54.21637609 48.3046875 56.46875 C51.38608884 59.46806483 54.25812526 62.56220312 57.05859375 65.82421875 C58.61300082 67.63228618 60.18673505 69.42376308 61.76953125 71.20703125 C72.63008299 83.51869107 82.04696249 96.75828546 90.8671875 110.59375 C91.38087891 111.39643311 91.89457031 112.19911621 92.42382812 113.02612305 C93.13055664 114.15401245 93.13055664 114.15401245 93.8515625 115.3046875 C94.26631836 115.9651709 94.68107422 116.6256543 95.10839844 117.30615234 C96.14356696 119.26876372 96.67473746 121.05170929 97.1171875 123.21875 C96.33859375 122.79464844 95.56 122.37054688 94.7578125 121.93359375 C87.60725361 118.18531691 80.42924805 115.07285247 72.8046875 112.40625 C71.98194336 112.1167749 71.15919922 111.8272998 70.31152344 111.52905273 C63.0536527 109.05318936 55.85643193 106.82186567 48.1171875 107.21875 C51.51730675 109.98134689 55.23844411 111.91818497 59.1171875 113.90625 C105.36056426 138.16525428 128.58900828 177.59201434 150.1171875 223.21875 C150.4471875 223.21875 150.7771875 223.21875 151.1171875 223.21875 C150.10837599 172.96159488 116.07044632 117.43445323 82.5625 81.875 C80.1171875 79.21875 80.1171875 79.21875 77.921875 76.375 C77.32632813 75.6634375 76.73078125 74.951875 76.1171875 74.21875 C75.4571875 74.21875 74.7971875 74.21875 74.1171875 74.21875 C74.1171875 73.55875 74.1171875 72.89875 74.1171875 72.21875 C71.69287419 69.6363293 68.85001481 67.46485478 66.1171875 65.21875 C65.58657715 64.78256348 65.0559668 64.34637695 64.50927734 63.89697266 C57.72303785 58.3522825 51.06926761 53.02649207 43.1171875 49.21875 Z M217.1171875 201.21875 C216.35269287 201.89284912 216.35269287 201.89284912 215.57275391 202.58056641 C201.34532612 215.12580223 186.44625854 230.31061262 179.1171875 248.21875 C179.4471875 248.87875 179.7771875 249.53875 180.1171875 250.21875 C180.890625 249.43371094 181.6640625 248.64867187 182.4609375 247.83984375 C192.60401389 237.58889707 192.60401389 237.58889707 197.8828125 233.1171875 C199.68853146 231.58295775 201.4606311 230.02452356 203.2265625 228.4453125 C235.26578477 200.02049228 273.23611592 191.09993288 315.1171875 189.21875 C311.69963761 186.9403834 308.4960615 186.11313538 304.5546875 185.21875 C303.78979004 185.04504883 303.02489258 184.87134766 302.23681641 184.69238281 C291.02273997 182.34888046 279.5303893 181.87123609 268.1171875 181.21875 C291.05665729 163.52482449 317.8751253 151.5988149 345.1171875 142.21875 C345.1171875 141.88875 345.1171875 141.55875 345.1171875 141.21875 C299.52812102 139.68273024 249.63884495 172.0569459 217.1171875 201.21875 Z " fill="#468EAD" transform="translate(139.8828125,360.78125)"/>
<path d="M0 0 C0.77859375 -0.02449219 1.5571875 -0.04898438 2.359375 -0.07421875 C16.90594013 -0.14529317 31.30067024 8.12150742 44.5 13.5625 C48.87563536 15.36100044 53.25220615 17.15721743 57.62890625 18.953125 C58.73171432 19.4060643 59.8345224 19.8590036 60.9707489 20.32566833 C68.35025175 23.35253931 75.74521006 26.33832605 83.15234375 29.296875 C85.07667934 30.06741628 87.00099617 30.83800441 88.92529297 31.60864258 C91.65457628 32.70134228 94.38469289 33.79159706 97.1182251 34.87362671 C99.62455523 35.86599344 102.12699434 36.8676505 104.62890625 37.87109375 C105.35077621 38.15366028 106.07264618 38.43622681 106.81639099 38.72735596 C113.21099561 41.30939679 120.08530905 44.43959233 124.1875 50.1875 C124.86232422 51.09435547 124.86232422 51.09435547 125.55078125 52.01953125 C129.29848616 58.68580281 130.31195413 64.30674658 130.21557617 71.8203125 C130.21601425 72.72856277 130.21645233 73.63681305 130.21690369 74.57258606 C130.21482821 77.54861607 130.19155602 80.52406946 130.16796875 83.5 C130.16236838 85.57364596 130.15810037 87.64729591 130.15510559 89.72094727 C130.14369158 95.15927226 130.11425408 100.59735409 130.08099365 106.0355835 C130.05021841 111.59269929 130.03658435 117.14985466 130.02148438 122.70703125 C129.98938104 133.59646057 129.93822647 144.48571001 129.875 155.375 C130.45892737 155.56616709 131.04285475 155.75733418 131.64447689 155.9542942 C135.99023062 157.38789871 140.2919512 158.86608838 144.54321289 160.56396484 C145.55779068 160.96803558 146.57236847 161.37210632 147.61769104 161.78842163 C148.68357956 162.21660187 149.74946808 162.6447821 150.84765625 163.0859375 C151.97014267 163.53595123 153.09262909 163.98596497 154.24913025 164.44961548 C156.61045747 165.3978494 158.97117066 166.34761371 161.33129883 167.29882812 C164.92690992 168.74573844 168.52682561 170.18155835 172.12695312 171.6171875 C174.42996167 172.54358955 176.73270514 173.47065088 179.03515625 174.3984375 C180.63702538 175.03463516 180.63702538 175.03463516 182.27125549 175.6836853 C191.63708066 179.48376804 201.17824312 183.66188226 205.77949619 193.26219082 C208.16491069 199.89008504 208.30616472 206.11731644 208.27905273 213.11157227 C208.28934761 214.98158401 208.28934761 214.98158401 208.29985046 216.88937378 C208.31494045 220.28408462 208.31663395 223.67824286 208.31090808 227.07294583 C208.3078023 229.91587753 208.31392375 232.75876029 208.31994683 235.60168499 C208.33395506 242.31091469 208.33246061 249.02001695 208.32104492 255.72924805 C208.30955583 262.6339156 208.32366079 269.53819509 208.3504414 276.44281155 C208.37263695 282.38959332 208.37922747 288.33625361 208.37336498 294.28307384 C208.37000476 297.82680154 208.37234823 301.3702803 208.38961601 304.91397285 C208.40803388 308.86540949 208.39385835 312.81637249 208.37670898 316.76782227 C208.38637695 317.93116592 208.39604492 319.09450958 208.40600586 320.29310608 C208.33635731 327.96621491 207.31993012 333.46168025 202.09375 339.3984375 C201.5265625 339.84445312 200.959375 340.29046875 200.375 340.75 C199.8078125 341.21148437 199.240625 341.67296875 198.65625 342.1484375 C193.96073704 345.38175125 191.51182477 345.4863637 185.75 344.625 C184.33094031 344.42299033 182.91165898 344.22253303 181.4921875 344.0234375 C180.74678711 343.91612305 180.00138672 343.80880859 179.23339844 343.69824219 C175.12312678 343.13488818 170.99934526 342.69627573 166.875 342.25 C165.33333099 342.08075054 163.79166411 341.9114816 162.25 341.7421875 C161.13625 341.62101562 160.0225 341.49984375 158.875 341.375 C161.24142577 338.70069122 163.61227891 337.37838588 166.83984375 335.88671875 C167.80470703 335.42716797 168.76957031 334.96761719 169.76367188 334.49414062 C171.78853097 333.54332594 173.81718081 332.60054066 175.84960938 331.66601562 C176.81576172 331.20259766 177.78191406 330.73917969 178.77734375 330.26171875 C180.09980103 329.64623169 180.09980103 329.64623169 181.44897461 329.01831055 C184.51696896 326.94015114 186.39293307 324.73830686 187.875 321.375 C188.44340869 317.97746592 188.41184188 314.63299219 188.37670898 311.19458008 C188.38211197 310.18415146 188.38751495 309.17372284 188.39308167 308.13267517 C188.40555854 304.80299321 188.38908769 301.47417741 188.37109375 298.14453125 C188.37124873 295.82858739 188.37273745 293.51264326 188.37550354 291.19670105 C188.37688695 286.34887189 188.3643359 281.50133881 188.34155273 276.65356445 C188.31312101 270.43231499 188.31591924 264.21155567 188.32864285 257.99026966 C188.3355877 253.21111341 188.32782516 248.43207102 188.31538582 243.65292931 C188.31086306 241.35834883 188.31054168 239.06375618 188.31445122 236.76917458 C188.31735289 233.56827207 188.30090771 230.36805264 188.27905273 227.16723633 C188.28355438 226.21497162 188.28805603 225.26270691 188.29269409 224.28158569 C188.27783714 222.97579811 188.27783714 222.97579811 188.26268005 221.64363098 C188.26025016 220.88725751 188.25782026 220.13088404 188.25531673 219.35159016 C187.76555216 216.80617539 186.94904725 215.89684593 184.875 214.375 C179.11977594 214.51537132 174.67564735 216.60759205 169.64453125 219.13671875 C168.47337769 219.71092056 168.47337769 219.71092056 167.27856445 220.29672241 C164.74346784 221.54261635 162.21550987 222.80229759 159.6875 224.0625 C157.93943623 224.92518851 156.19097925 225.78708068 154.44213867 226.64819336 C149.24645624 229.21052293 144.06013927 231.79141986 138.875 234.375 C137.37507136 235.12091175 135.87507488 235.86668708 134.375 236.61230469 C127.33512594 240.11302928 120.30281946 243.62843149 113.28051758 247.16430664 C111.7373498 247.94098065 110.18432569 248.69854095 108.61987305 249.43139648 C106.24718129 250.71451579 105.88529715 251.8829337 104.875 254.375 C104.36958176 255.40037369 103.86416351 256.42574738 103.34342957 257.48219299 C101.55677078 261.6686735 101.43422727 265.46761571 101.44262695 269.97241211 C101.4324353 270.80248779 101.42224365 271.63256348 101.41174316 272.48779297 C101.381744 275.20937972 101.37236737 277.93061375 101.36328125 280.65234375 C101.34642485 282.54807188 101.32827332 284.44378889 101.30888367 286.3394928 C101.26148194 291.31243416 101.23160905 296.28533045 101.20544434 301.25842285 C101.17558917 306.33969011 101.12907588 311.42080227 101.08398438 316.50195312 C100.99806308 326.45955412 100.93066815 336.41718712 100.875 346.375 C97.91829782 347.37986895 94.95938423 348.37806024 92 349.375 C91.15824219 349.66117187 90.31648437 349.94734375 89.44921875 350.2421875 C88.64355469 350.51289063 87.83789062 350.78359375 87.0078125 351.0625 C86.26418457 351.31386719 85.52055664 351.56523437 84.75439453 351.82421875 C82.875 352.375 82.875 352.375 80.875 352.375 C80.86953156 350.66944191 80.86953156 350.66944191 80.86395264 348.9294281 C80.82697914 338.20336845 80.76918049 327.47759526 80.69109726 316.75175381 C80.65162209 311.23772952 80.61943367 305.72386495 80.60400391 300.2097168 C80.58883779 294.88622808 80.5543925 289.56317844 80.50669098 284.23988533 C80.49187682 282.21100752 80.48395897 280.18206702 80.48311615 278.1531353 C80.48074489 275.30661318 80.45365208 272.46130289 80.42089844 269.61499023 C80.4259288 268.77988922 80.43095917 267.94478821 80.43614197 267.0843811 C80.32633046 260.89857151 78.87786759 256.32960975 74.32543945 251.8503418 C66.9412866 247.53699988 58.95288731 244.43965941 51.0625 241.1875 C48.54548473 240.14343413 46.02915095 239.09773727 43.5128479 238.05195618 C41.74628008 237.31804007 39.97932545 236.5850544 38.21200562 235.85295105 C32.45843965 233.4654057 26.72502806 231.03468555 21.00300598 228.57252502 C17.0843658 226.8867632 13.16096438 225.2122463 9.23721313 223.53842163 C7.33529307 222.72380552 5.43550557 221.90419157 3.53793335 221.07949829 C0.87472437 219.92326813 -1.79584231 218.78593523 -4.46875 217.65234375 C-5.25779221 217.30422638 -6.04683441 216.95610901 -6.85978699 216.59744263 C-11.29804611 214.73970453 -14.34279209 213.80114982 -19.125 215.375 C-20.2703458 217.66569159 -20.2530295 218.94354779 -20.25871277 221.48973083 C-20.26297775 222.35165543 -20.26724274 223.21358002 -20.27163696 224.10162354 C-20.27118378 225.0496283 -20.27073059 225.99763306 -20.27026367 226.97436523 C-20.27362228 227.97135941 -20.2769809 228.96835358 -20.28044128 229.99555969 C-20.28997759 233.30825024 -20.29189628 236.62089031 -20.29296875 239.93359375 C-20.29618141 242.23608928 -20.29954549 244.53858461 -20.30305481 246.84107971 C-20.30905413 251.67913282 -20.31089408 256.51716805 -20.31030273 261.35522461 C-20.31020151 267.53534103 -20.32380903 273.71534153 -20.34107494 279.89543056 C-20.35223559 284.65772521 -20.35422063 289.41999228 -20.35369301 294.18229866 C-20.35486872 296.45911111 -20.35926742 298.73592438 -20.36702538 301.01272392 C-20.37689945 304.21225758 -20.3739172 307.41154578 -20.36791992 310.61108398 C-20.37353943 311.54087067 -20.37915894 312.47065735 -20.38494873 313.42861938 C-20.34515824 321.84590814 -20.27722636 332.06260849 -14.125 338.375 C-10.66096741 340.36691794 -7.02939999 341.79762417 -3.3125 343.25 C-2.20841797 343.69980225 -1.10433594 344.14960449 0.03320312 344.61303711 C2.53574574 345.63100621 5.04016065 346.64174689 7.54931641 347.64306641 C15.12244047 350.66856313 22.66717132 353.76428524 30.2149353 356.85235596 C32.85684032 357.93009196 35.50196031 358.99960127 38.14770508 360.06787109 C39.78603478 360.73389027 41.42430265 361.4000616 43.0625 362.06640625 C43.82282028 362.37116379 44.58314056 362.67592133 45.36650085 362.98991394 C50.64822105 365.14822105 50.64822105 365.14822105 52.875 367.375 C50.31826254 369.03041991 47.75529195 370.67438729 45.1875 372.3125 C44.1056543 373.01536133 44.1056543 373.01536133 43.00195312 373.73242188 C41.94331055 374.4043457 41.94331055 374.4043457 40.86328125 375.08984375 C40.21915283 375.50355225 39.57502441 375.91726074 38.91137695 376.34350586 C34.7263623 378.46335802 32.01848252 378.58498207 27.57885742 377.18188477 C25.87319814 376.57726229 24.17399969 375.95421096 22.48046875 375.31640625 C21.57428299 374.97560532 20.66809723 374.63480438 19.73445129 374.28367615 C17.81754018 373.55249621 15.90374316 372.81310714 13.99291992 372.06616211 C12.0540348 371.31939331 10.1056108 370.5968933 8.14819336 369.90014648 C-9.81711997 363.50318726 -9.81711997 363.50318726 -14.23197937 355.37779236 C-15.43278444 352.7449531 -16.45447501 350.0888765 -17.38897705 347.35107422 C-18.66457992 343.92633597 -20.43771277 340.76377507 -22.1875 337.5625 C-22.51823517 336.94526062 -22.84897034 336.32802124 -23.18972778 335.69207764 C-28.33964181 326.12578909 -28.33964181 326.12578909 -34.81335449 317.44285583 C-40.86743905 310.03178224 -41.12881288 303.46058588 -41.02734375 294.1796875 C-41.03674681 292.73664104 -41.04921563 291.29361164 -41.06459045 289.85061646 C-41.0965983 286.08562545 -41.08745523 282.32186175 -41.06921387 278.55682373 C-41.0579941 274.70181232 -41.08641869 270.84710479 -41.11132812 266.9921875 C-41.15429245 259.4528754 -41.15370835 251.91441647 -41.125 244.375 C-46.36708895 242.14205677 -51.60974167 239.91044343 -56.85281372 237.67980957 C-58.69695485 236.894965 -60.54092945 236.10972904 -62.38473511 235.32409668 C-75.60248691 229.68955319 -75.60248691 229.68955319 -88.87890625 224.1953125 C-90.51279297 223.52798096 -90.51279297 223.52798096 -92.1796875 222.84716797 C-94.11789046 222.05961569 -96.05910338 221.27941108 -98.00390625 220.50830078 C-104.87427369 217.71333391 -111.49940242 214.75334003 -115 207.8125 C-115.38929688 207.06871094 -115.77859375 206.32492187 -116.1796875 205.55859375 C-117.91029075 201.56104326 -118.25249246 198.08134809 -118.26544189 193.73330688 C-118.27115204 192.58374008 -118.27686218 191.43417328 -118.28274536 190.24977112 C-118.28386322 188.99252731 -118.28498108 187.73528351 -118.28613281 186.43994141 C-118.29076333 185.09934859 -118.29578831 183.75875709 -118.30117798 182.41816711 C-118.31427998 178.77968789 -118.32074244 175.1412271 -118.32518864 171.50272799 C-118.32812244 169.22854522 -118.3322278 166.95436746 -118.33669281 164.68018723 C-118.3503609 157.56175435 -118.36003137 150.44333296 -118.3638947 143.32488787 C-118.36837627 135.11302197 -118.38593154 126.90132244 -118.4148953 118.68950713 C-118.43651944 112.33778945 -118.44659934 105.98611857 -118.44793582 99.63436449 C-118.44898317 95.84249811 -118.45487617 92.05078829 -118.47275543 88.25896072 C-118.48924928 84.6917141 -118.49138541 81.12474152 -118.48261642 77.55747032 C-118.48148057 75.62872194 -118.49518713 73.69998259 -118.5093689 71.77128601 C-118.47374037 64.38087882 -117.91521284 59.65760334 -113 53.875 C-107.31556856 48.93201614 -101.23683012 45.35444951 -94.48828125 42.01953125 C-93.05629895 41.30919725 -91.62442227 40.59865029 -90.19262695 39.88793945 C-89.39378082 39.49224762 -88.59493469 39.09655579 -87.7718811 38.68887329 C-82.61258221 36.12787234 -77.46356769 33.5462544 -72.3125 30.96875 C-69.97660148 29.80070328 -67.64066333 28.63273583 -65.3046875 27.46484375 C-64.11165122 26.86833167 -62.91861738 26.27181472 -61.72558594 25.67529297 C-54.52441406 22.07470703 -54.52441406 22.07470703 -52.73065186 21.17784119 C-50.95777583 20.29138802 -49.18494245 19.40484959 -47.41210938 18.51831055 C-45.11679738 17.37081583 -42.82122918 16.22383343 -40.52539062 15.07739258 C-35.70611985 12.67025385 -30.88891398 10.25982674 -26.0859375 7.8203125 C-24.98221802 7.26168518 -24.98221802 7.26168518 -23.85620117 6.69177246 C-21.98983885 5.74610578 -20.12566175 4.79612951 -18.26171875 3.84570312 C-11.9705707 0.89599299 -6.83966046 0.01099624 0 0 Z M-13.25 22.375 C-13.97703125 22.73722656 -14.7040625 23.09945312 -15.453125 23.47265625 C-17.05728284 24.27473517 -18.6567414 25.08625311 -20.25244141 25.9050293 C-23.70923246 27.67396852 -27.18194579 29.41034949 -30.65625 31.14453125 C-32.04444008 31.83804039 -33.43262355 32.53156279 -34.82080078 33.22509766 C-35.52803284 33.57832092 -36.23526489 33.93154419 -36.96392822 34.29547119 C-40.56763545 36.09564544 -44.17049291 37.89751877 -47.7734375 39.69921875 C-49.22525634 40.42513835 -50.67707927 41.1510498 -52.12890625 41.87695312 C-52.84836426 42.23668213 -53.56782227 42.59641113 -54.30908203 42.96704102 C-63.91438802 47.76969401 -73.51969401 52.57234701 -83.125 57.375 C-83.125 58.365 -83.125 59.355 -83.125 60.375 C-82.34640625 60.69436523 -81.5678125 61.01373047 -80.765625 61.34277344 C-76.88487564 62.93553491 -73.00475414 64.52981604 -69.125 66.125 C-68.0295285 66.57536118 -68.0295285 66.57536118 -66.91192627 67.03482056 C-56.75054842 71.21426227 -46.60088635 75.42117038 -36.4609375 79.65234375 C-35.38749084 80.10020233 -34.31404419 80.54806091 -33.20806885 81.00949097 C-27.86302879 83.24007809 -22.51889953 85.47282139 -17.17578125 87.70800781 C-15.18751331 88.53844332 -13.19923263 89.36884835 -11.2109375 90.19921875 C-10.31007416 90.57682846 -9.40921082 90.95443817 -8.48104858 91.3434906 C-6.03334733 92.36496505 -3.58135996 93.37454449 -1.125 94.375 C-0.39409149 94.67483292 0.33681702 94.97466583 1.08987427 95.28358459 C8.5876593 98.2482944 15.32770834 98.75665334 22.8359375 95.55859375 C24.65210282 94.66621893 26.45613033 93.74888715 28.25 92.8125 C29.26586182 92.30452881 30.28172363 91.79655762 31.32836914 91.27319336 C34.42561885 89.71582921 37.50985968 88.13609506 40.5914917 86.54821777 C44.11280906 84.73904015 47.64273597 82.94685205 51.17163086 81.1525116 C60.96619737 76.17186331 70.74981504 71.17023242 80.51979065 66.14151001 C86.28442633 63.17785932 92.07184619 60.26248515 97.875 57.375 C95.24315486 54.58574685 92.98957797 53.41571708 89.390625 52.01953125 C88.24706543 51.5699707 87.10350586 51.12041016 85.92529297 50.65722656 C85.30861755 50.41879028 84.69194214 50.180354 84.05657959 49.93469238 C80.68491728 48.63043321 77.32370239 47.29964822 73.9609375 45.97265625 C73.23935455 45.68868988 72.51777161 45.40472351 71.77432251 45.1121521 C63.57915163 41.87980008 55.43447783 38.52584083 47.28927612 35.17001343 C44.75853053 34.12851065 42.22633207 33.09062548 39.69360352 32.05395508 C32.88039074 29.26409433 26.07081451 26.47168977 19.30078125 23.578125 C18.3876416 23.19430664 17.47450195 22.81048828 16.53369141 22.41503906 C14.97639766 21.75962794 13.42437 21.0914184 11.88037109 20.40527344 C2.78411197 16.61936959 -4.71846846 17.90400839 -13.25 22.375 Z M95.953125 78.71484375 C94.51139017 79.45489286 93.06931511 80.19427942 91.62695312 80.93310547 C90.4732019 81.52825958 90.4732019 81.52825958 89.29614258 82.13543701 C85.06739896 84.30044544 80.80475834 86.39697129 76.546875 88.50390625 C74.73935389 89.40253343 72.93206449 90.30162682 71.125 91.20117188 C68.36631009 92.57437659 65.60706493 93.94638404 62.84570312 95.31420898 C39.19179574 105.26258336 39.19179574 105.26258336 22.875 123.375 C22.48729445 126.27694733 22.5238764 129.13128567 22.58203125 132.0546875 C22.58627609 132.86745148 22.59052094 133.68021545 22.59489441 134.51760864 C22.61159196 137.09541959 22.64922638 139.6724282 22.6875 142.25 C22.70255842 144.00519699 22.7162448 145.76040631 22.72851562 147.515625 C22.76146608 151.80238913 22.81318547 156.08855886 22.875 160.375 C35.39283096 154.51253895 35.39283096 154.51253895 47.7890625 148.3984375 C49.24868408 147.65944214 49.24868408 147.65944214 50.73779297 146.90551758 C52.6276043 145.94463177 54.5147694 144.97851932 56.39892578 144.0065918 C68.03443858 138.09013844 78.95389267 136.33328105 91.6875 140.125 C96.25505317 141.6846523 100.65391852 143.48540079 104.97265625 145.640625 C107.15707187 146.6150894 107.15707187 146.6150894 110.875 146.375 C110.96769161 137.70843996 111.0387603 129.04205062 111.08224869 120.375103 C111.10312133 116.35063923 111.13143235 112.32651465 111.17675781 108.30224609 C111.2202282 104.41836464 111.24413954 100.53480938 111.25450897 96.65070343 C111.26189831 95.16909907 111.27632818 93.68751251 111.29792023 92.20604706 C111.32697212 90.13013679 111.33095556 88.05557313 111.32910156 85.97949219 C111.34242523 84.20744415 111.34242523 84.20744415 111.35601807 82.39959717 C111.09938763 79.29252479 111.09938763 79.29252479 109.09661865 76.96221924 C104.38160104 73.5936093 100.44005621 76.35360021 95.953125 78.71484375 Z M-98.125 79.375 C-99.30463799 81.73427598 -99.2557505 83.1511947 -99.26544189 85.78239441 C-99.27115204 86.70899872 -99.27686218 87.63560303 -99.28274536 88.59028625 C-99.28386322 89.61003036 -99.28498108 90.62977448 -99.28613281 91.68041992 C-99.29109772 92.75211426 -99.29606262 93.82380859 -99.30117798 94.92797852 C-99.31582863 98.48714838 -99.32260726 102.04627364 -99.328125 105.60546875 C-99.33387508 108.07448834 -99.33963283 110.54350791 -99.34539795 113.01252747 C-99.3559169 118.19691171 -99.36175338 123.38128041 -99.36523438 128.56567383 C-99.37071389 135.20583644 -99.39472676 141.84578834 -99.42320633 148.48589611 C-99.44184181 153.58944801 -99.44703886 158.69295054 -99.44857025 163.79653358 C-99.45159641 166.24412469 -99.45962365 168.69171494 -99.47275543 171.13927269 C-99.48983068 174.56720914 -99.48793149 177.99464557 -99.48144531 181.42260742 C-99.4906601 182.43223038 -99.49987488 183.44185333 -99.5093689 184.48207092 C-99.47540145 190.21962109 -98.93453823 194.32793081 -96.125 199.375 C-91.83581288 202.94016102 -86.93427633 204.8779967 -81.796875 206.90625 C-81.00782776 207.22404419 -80.21878052 207.54183838 -79.40582275 207.8692627 C-76.89805766 208.87756938 -74.38665399 209.87642551 -71.875 210.875 C-70.20417708 211.54494975 -68.53360175 212.21551734 -66.86328125 212.88671875 C-63.68124037 214.16446042 -60.49694773 215.4362979 -57.31054688 216.703125 C-54.80999631 217.6983021 -52.31813005 218.70788766 -49.83007812 219.734375 C-48.49879883 220.28351563 -48.49879883 220.28351563 -47.140625 220.84375 C-46.41649414 221.14732422 -45.69236328 221.45089844 -44.94628906 221.76367188 C-42.9711814 222.53410477 -42.9711814 222.53410477 -40.125 222.375 C-40.12089111 221.76092285 -40.11678223 221.1468457 -40.11254883 220.51416016 C-39.83648211 196.99327589 -39.83648211 196.99327589 -34.125 190.375 C-26.58634206 184.6806091 -17.95880953 180.61973587 -9.5 176.5 C-7.17367779 175.35840241 -4.84811205 174.21526153 -2.5234375 173.0703125 C-1.00242432 172.3280542 -1.00242432 172.3280542 0.54931641 171.57080078 C2.77642447 170.57541333 2.77642447 170.57541333 3.875 169.375 C3.98346473 167.96979015 4.02401094 166.55923992 4.03613281 165.14990234 C4.04574036 164.25161713 4.0553479 163.35333191 4.06524658 162.42782593 C4.06949646 161.44875275 4.07374634 160.46967957 4.078125 159.4609375 C4.08382507 158.4579361 4.08952515 157.45493469 4.09539795 156.42153931 C4.10486765 154.2912909 4.11138971 152.16102771 4.11523438 150.03076172 C4.12489711 146.78456591 4.15588427 143.53901462 4.1875 140.29296875 C4.19403411 138.2239621 4.19928297 136.1549509 4.203125 134.0859375 C4.2216452 132.63554581 4.2216452 132.63554581 4.24053955 131.15585327 C4.22187183 125.4506091 3.87693424 121.29691816 0.875 116.375 C-3.45350978 112.21891427 -8.83663202 109.96437691 -14.3359375 107.765625 C-15.52042984 107.27887299 -15.52042984 107.27887299 -16.72885132 106.7822876 C-19.31584576 105.72134492 -21.9077821 104.67310754 -24.5 103.625 C-26.3105892 102.88566582 -28.12080497 102.14541654 -29.93066406 101.40429688 C-32.75392206 100.24855116 -35.57752133 99.09370161 -38.40258789 97.94238281 C-45.20759737 95.16820518 -51.99459347 92.3530871 -58.7734375 89.515625 C-60.65314128 88.73010428 -62.53286109 87.94462193 -64.41259766 87.15917969 C-67.13045224 86.02332927 -69.84782999 84.88641176 -72.56365967 83.74572754 C-75.07714037 82.69080186 -77.59296316 81.64166061 -80.109375 80.59375 C-80.85029388 80.28101135 -81.59121277 79.96827271 -82.35458374 79.64605713 C-90.50745514 76.03169418 -90.50745514 76.03169418 -98.125 79.375 Z M58.90625 162.62109375 C58.07580673 163.02868423 57.24536346 163.43627472 56.38975525 163.85621643 C53.71563454 165.16989477 51.0453577 166.49119201 48.375 167.8125 C45.60754634 169.17408365 42.83912102 170.53367794 40.07066345 171.89321899 C38.23965798 172.79259799 36.40897758 173.6926391 34.57862854 174.59335327 C26.20873602 178.71078616 17.80506378 182.75384077 9.38671875 186.77124023 C4.18884525 189.25422009 -0.98103626 191.78201011 -6.125 194.375 C-5.40665126 197.7032261 -5.40665126 197.7032261 -1.93017578 198.99047852 C-0.48150597 199.5895785 0.97227143 200.1764087 2.4296875 200.75390625 C3.2223703 201.07845795 4.0150531 201.40300964 4.83175659 201.73739624 C7.46721686 202.81410163 10.1085617 203.87555484 12.75 204.9375 C14.58286924 205.68371971 16.41521939 206.43121559 18.24707031 207.17993164 C21.12352261 208.35546233 24.00028137 209.53017148 26.87866211 210.70097351 C37.82825257 215.15668871 48.72612197 219.73449475 59.625 224.3125 C62.3781331 225.46768377 65.13146763 226.62238415 67.88504028 227.77651978 C69.52348428 228.46327984 71.16174233 229.15048377 72.79977417 229.83822632 C74.82358205 230.68689652 76.8489837 231.53161924 78.875 232.375 C79.79700195 232.76115479 80.71900391 233.14730957 81.66894531 233.54516602 C89.87308942 236.63125342 95.78285176 234.68019415 103.44586182 231.21118164 C106.27539089 229.83949999 109.08109255 228.42761178 111.8828125 227 C112.92533173 226.47543213 113.96785095 225.95086426 115.04196167 225.41040039 C118.3642241 223.73764248 121.68232142 222.05682831 125 220.375 C129.33429906 218.18424177 133.67057117 215.9974267 138.0078125 213.8125 C139.07066467 213.2760083 140.13351685 212.7395166 141.22857666 212.18676758 C149.70240683 207.92466676 158.24308424 203.81347209 166.837677 199.80053711 C167.7354184 199.37780518 168.63315979 198.95507324 169.55810547 198.51953125 C170.34651825 198.15190674 171.13493103 197.78428223 171.94723511 197.40551758 C174.03311911 196.41037679 174.03311911 196.41037679 175.875 194.375 C167.34603897 189.83147441 158.45962912 186.26672812 149.5 182.6875 C146.21662468 181.37053411 142.93433635 180.05087628 139.65234375 178.73046875 C138.79451797 178.3857251 137.9366922 178.04098145 137.0528717 177.68579102 C130.3300324 174.97765762 123.63318362 172.20965438 116.94140625 169.42578125 C113.95720572 168.18860607 110.97273549 166.9520834 107.98822021 165.71566772 C106.04838301 164.90964483 104.10992575 164.10029226 102.1729126 163.2875061 C99.4457052 162.14370067 96.7136928 161.01214998 93.98046875 159.8828125 C92.77482018 159.37135429 92.77482018 159.37135429 91.54481506 158.8495636 C78.89196784 153.66325791 70.67206411 156.7627345 58.90625 162.62109375 Z " fill="#448DAC" transform="translate(324.125,110.625)"/>
<path d="M0 0 C3.4861422 3.4861422 3.11549785 7.23184482 3.12442017 12.01881409 C3.12082489 12.81794724 3.11722961 13.61708038 3.11352539 14.44042969 C3.11367142 15.28957443 3.11381744 16.13871918 3.1139679 17.01359558 C3.11327201 19.8163815 3.10549476 22.61910071 3.09765625 25.421875 C3.09579092 27.36671919 3.09436756 29.31156386 3.09336853 31.25640869 C3.08955242 36.37247009 3.07972984 41.48850305 3.06866455 46.60455322 C3.05843098 51.82620865 3.05386674 57.04786868 3.04882812 62.26953125 C3.03810678 72.51303332 3.0210412 82.75651429 3 93 C3.66 93.33 4.32 93.66 5 94 C3.02 94.495 3.02 94.495 1 95 C0.67 63.65 0.34 32.3 0 0 Z " fill="#4F93B1" transform="translate(404,368)"/>
<path d="M0 0 C0 3 0 3 -2.5 5.6875 C-3.325 6.450625 -4.15 7.21375 -5 8 C-1.37 8 2.26 8 6 8 C6 8.33 6 8.66 6 9 C0.39 9 -5.22 9 -11 9 C-7.12038353 5.12038353 -4.43416733 2.7842446 0 0 Z " fill="#2D7DA0" transform="translate(418,534)"/>
<path d="M0 0 C0.66 0.33 1.32 0.66 2 1 C-3.61 6.61 -9.22 12.22 -15 18 C-15.66 17.67 -16.32 17.34 -17 17 C-16.54109375 16.55269531 -16.0821875 16.10539063 -15.609375 15.64453125 C-12.89847289 12.97349535 -10.29168481 10.37123521 -7.9375 7.375 C-5.55829868 4.45855968 -2.94319035 2.34117414 0 0 Z " fill="#3884A6" transform="translate(367,506)"/>
<path d="M0 0 C0.99 0.33 1.98 0.66 3 1 C0.69 3.31 -1.62 5.62 -4 8 C-4.33 7.01 -4.66 6.02 -5 5 C-3.35 3.35 -1.7 1.7 0 0 Z " fill="#3C87A8" transform="translate(499,645)"/>
<path d="M0 0 C2.34058637 2.12780579 3.70700306 4.11562221 5 7 C4.01 7 3.02 7 2 7 C1.67 8.32 1.34 9.64 1 11 C-0.32 8.36 -1.64 5.72 -3 3 C-2.34 3 -1.68 3 -1 3 C-0.67 2.01 -0.34 1.02 0 0 Z " fill="#3482A5" transform="translate(304,442)"/>
<path d="M0 0 C0.66 0.33 1.32 0.66 2 1 C-1.08632611 4.2626876 -3.93483504 7.02235218 -8 9 C-8.66 8.67 -9.32 8.34 -10 8 C-8.89764064 7.03958829 -7.79303376 6.08175593 -6.6875 5.125 C-5.76517578 4.32449219 -5.76517578 4.32449219 -4.82421875 3.5078125 C-3 2 -3 2 0 0 Z " fill="#3482A5" transform="translate(380,496)"/>
<path d="M0 0 C0.99 0.33 1.98 0.66 3 1 C-0.96 4.465 -0.96 4.465 -5 8 C-5.66 7.67 -6.32 7.34 -7 7 C-4.69 4.69 -2.38 2.38 0 0 Z " fill="#3984A6" transform="translate(331,599)"/>
<path d="M0 0 C0.99 0.33 1.98 0.66 3 1 C1.68 1.99 0.36 2.98 -1 4 C-1.66 3.67 -2.32 3.34 -3 3 C-2.01 2.01 -1.02 1.02 0 0 Z " fill="#3C87A8" transform="translate(470,674)"/>
</svg>
